<svg width="400" height="400" viewBox="0 0 400 400" fill="none" xmlns="http://www.w3.org/2000/svg">
<path d="M362 152.397V247.144C362 262.175 361.832 262.85 359.976 262.85H337.031C335.175 262.85 334.838 262.175 334.838 247.144V152.397C334.838 137.366 335.175 136.691 337.031 136.691H359.976C361.832 136.691 362 137.366 362 152.397Z" fill="#5718C0"/>
<path d="M297.668 207.791V204.245C297.668 195.8 293.788 192.422 287.039 192.422C280.459 192.422 276.917 195.969 275.904 202.218C275.567 204.076 275.736 205.596 274.723 205.596H251.947C250.598 205.596 250.598 205.258 250.598 204.076C250.598 195.125 259.033 176.547 288.389 176.547C309.14 176.547 323.987 184.823 323.987 207.791V241.569C323.987 249.338 328.204 260.316 328.204 261.836C328.204 262.511 327.698 262.849 327.192 262.849H301.886C300.705 262.849 300.536 262.173 299.692 257.951L299.018 254.742C298.511 252.209 298.174 251.364 297.162 251.364C295.812 251.364 294.969 254.404 291.257 257.951C287.208 261.667 282.315 264.2 273.88 264.2C260.214 264.2 247.898 256.431 247.898 239.542C247.898 220.627 262.576 212.52 284.34 211.676C295.643 211.169 297.668 212.351 297.668 207.791ZM297.668 232.28V228.902C297.668 225.525 296.824 224.511 293.956 224.68L287.714 225.018C279.785 225.525 275.061 229.578 275.061 237.178C275.061 244.609 279.11 248.325 285.015 248.325C291.594 248.325 297.668 242.245 297.668 232.28Z" fill="#5718C0"/>
<path d="M201.982 198.671C201.982 195.462 200.633 195.124 194.39 195.124H191.354C190.173 195.124 190.004 194.28 190.004 187.355V186.173C190.004 179.249 190.173 178.573 191.354 178.573H194.896C201.139 178.573 201.982 178.067 201.982 175.027V164.555C201.982 144.796 211.936 135 231.169 135C238.761 135 243.991 136.182 244.835 136.689C245.172 137.027 245.172 137.533 245.172 143.782V145.978C245.172 152.395 245.172 153.915 244.666 153.915C244.16 153.915 241.798 152.395 237.749 152.395C232.35 152.395 228.976 155.098 228.976 164.555V175.027C228.976 178.067 230.157 178.573 237.749 178.573H245.341C246.859 178.573 246.859 179.249 246.859 186.173V187.355C246.859 194.28 246.69 195.124 245.51 195.124H237.749C230.157 195.124 228.976 195.462 228.976 198.671V247.142C228.976 262.173 228.47 262.848 227.12 262.848H203.669C202.32 262.848 201.982 262.173 201.982 247.142V198.671Z" fill="#5718C0"/>
<path fill-rule="evenodd" clip-rule="evenodd" d="M120.174 136.993C122.354 136.993 124.102 138.766 124.311 140.937C126.17 160.298 141.58 175.707 160.943 177.566C163.114 177.775 164.887 179.522 164.887 181.703V218.161C164.887 220.342 163.114 222.089 160.943 222.298C141.58 224.157 126.17 239.566 124.311 258.928C124.102 261.098 122.354 262.871 120.174 262.871H83.7135C81.5327 262.871 79.7849 261.098 79.5764 258.928C77.7168 239.566 62.3072 224.157 42.9441 222.298C40.7733 222.089 39 220.342 39 218.161V181.703C39 179.522 40.7733 177.775 42.9441 177.566C62.3072 175.707 77.7168 160.298 79.5764 140.937C79.7849 138.766 81.5327 136.993 83.7135 136.993H120.174ZM64.2759 199.826C64.2759 220.77 81.2364 237.748 102.158 237.748C123.081 237.748 140.041 220.77 140.041 199.826C140.041 178.881 123.081 161.903 102.158 161.903C81.2364 161.903 64.2759 178.881 64.2759 199.826Z" fill="#5718C0"/>
</svg>
