<svg width="905" height="320" viewBox="0 0 905 320" fill="none" xmlns="http://www.w3.org/2000/svg">
<path d="M671.001 96.4839V224.377C671.001 244.666 670.773 245.578 668.268 245.578H637.296C634.791 245.578 634.336 244.666 634.336 224.377V96.4839C634.336 76.1943 634.791 75.2824 637.296 75.2824H668.268C670.773 75.2824 671.001 76.1943 671.001 96.4839Z" fill="#5718C0"/>
<path d="M584.163 171.257V166.47C584.163 155.071 578.926 150.511 569.816 150.511C560.935 150.511 556.152 155.299 554.786 163.734C554.331 166.242 554.558 168.293 553.192 168.293H522.448C520.626 168.293 520.626 167.837 520.626 166.242C520.626 154.159 532.013 129.082 571.638 129.082C599.649 129.082 619.69 140.253 619.69 171.257V216.852C619.69 227.338 625.383 242.157 625.383 244.208C625.383 245.12 624.7 245.576 624.017 245.576H589.857C588.263 245.576 588.035 244.664 586.896 238.965L585.985 234.634C585.302 231.214 584.847 230.074 583.48 230.074C581.658 230.074 580.52 234.178 575.51 238.965C570.044 243.98 563.44 247.4 552.053 247.4C533.607 247.4 516.982 236.913 516.982 214.116C516.982 188.583 536.795 177.64 566.173 176.5C581.431 175.816 584.163 177.412 584.163 171.257ZM584.163 204.313V199.754C584.163 195.194 583.025 193.826 579.153 194.054L570.727 194.51C560.024 195.194 553.647 200.666 553.647 210.924C553.647 220.955 559.113 225.971 567.084 225.971C575.965 225.971 584.163 217.764 584.163 204.313Z" fill="#5718C0"/>
<path d="M455.001 158.946C455.001 154.614 453.179 154.158 444.753 154.158H440.654C439.06 154.158 438.832 153.019 438.832 143.672V142.076C438.832 132.729 439.06 131.817 440.654 131.817H445.436C453.862 131.817 455.001 131.133 455.001 127.03V112.895C455.001 86.2224 468.437 73 494.399 73C504.647 73 511.706 74.5958 512.845 75.2797C513.301 75.7357 513.301 76.4196 513.301 84.8546V87.8182C513.301 96.4812 513.301 98.533 512.617 98.533C511.934 98.533 508.746 96.4812 503.28 96.4812C495.993 96.4812 491.438 100.129 491.438 112.895V127.03C491.438 131.133 493.032 131.817 503.28 131.817H513.528C515.578 131.817 515.578 132.729 515.578 142.076V143.672C515.578 153.019 515.35 154.158 513.756 154.158H503.28C493.032 154.158 491.438 154.614 491.438 158.946V224.374C491.438 244.664 490.755 245.576 488.933 245.576H457.278C455.456 245.576 455.001 244.664 455.001 224.374V158.946Z" fill="#5718C0"/>
<path fill-rule="evenodd" clip-rule="evenodd" d="M344.571 75.69C347.515 75.69 349.874 78.0835 350.155 81.0135C352.665 107.149 373.466 127.948 399.603 130.458C402.534 130.739 404.927 133.098 404.927 136.042V185.255C404.927 188.198 402.534 190.557 399.603 190.839C373.466 193.349 352.665 214.148 350.155 240.283C349.874 243.213 347.515 245.607 344.571 245.607H295.355C292.412 245.607 290.052 243.213 289.771 240.283C287.261 214.148 266.46 193.349 240.323 190.839C237.393 190.557 234.999 188.198 234.999 185.255V136.042C234.999 133.098 237.393 130.739 240.323 130.458C266.46 127.948 287.261 107.149 289.771 81.0135C290.052 78.0835 292.412 75.69 295.355 75.69H344.571ZM269.118 160.504C269.118 188.776 292.012 211.694 320.254 211.694C348.495 211.694 371.39 188.776 371.39 160.504C371.39 132.233 348.495 109.315 320.254 109.315C292.012 109.315 269.118 132.233 269.118 160.504Z" fill="#5718C0"/>
</svg>
