<svg width="2105" height="896" viewBox="0 0 2105 896" fill="none" xmlns="http://www.w3.org/2000/svg">
<path d="M2060 153.532V744.596C2060 838.366 2058.95 842.58 2047.37 842.58H1904.23C1892.66 842.58 1890.55 838.366 1890.55 744.596V153.532C1890.55 59.7625 1892.66 55.5481 1904.23 55.5481H2047.37C2058.95 55.5481 2060 59.7625 2060 153.532Z" fill="#004012"/>
<path d="M1658.67 499.101V476.975C1658.67 424.296 1634.47 403.224 1592.37 403.224C1551.32 403.224 1529.22 425.349 1522.9 464.332C1520.8 475.922 1521.85 485.404 1515.54 485.404H1373.45C1365.03 485.404 1365.03 483.297 1365.03 475.922C1365.03 420.081 1417.66 304.186 1600.79 304.186C1730.24 304.186 1822.86 355.812 1822.86 499.101V709.819C1822.86 758.284 1849.17 826.767 1849.17 836.25C1849.17 840.464 1846.02 842.571 1842.86 842.571H1684.99C1677.62 842.571 1676.57 838.357 1671.3 812.017L1667.09 791.999C1663.94 776.195 1661.83 770.927 1655.52 770.927C1647.1 770.927 1641.84 789.892 1618.68 812.017C1593.42 835.196 1562.9 851 1510.28 851C1425.02 851 1348.19 802.535 1348.19 697.176C1348.19 579.174 1439.76 528.601 1575.53 523.333C1646.05 520.172 1658.67 527.548 1658.67 499.101ZM1658.67 651.871V630.799C1658.67 609.728 1653.41 603.406 1635.52 604.46L1596.58 606.567C1547.11 609.728 1517.64 635.014 1517.64 682.425C1517.64 728.783 1542.9 751.962 1579.74 751.962C1620.79 751.962 1658.67 714.033 1658.67 651.871Z" fill="#004012"/>
<path d="M1061.75 442.204C1061.75 422.186 1053.33 420.078 1014.39 420.078H995.445C988.078 420.078 987.025 414.81 987.025 371.613V364.238C987.025 321.041 988.078 316.826 995.445 316.826H1017.55C1056.49 316.826 1061.75 313.666 1061.75 294.701V229.378C1061.75 106.108 1123.85 45 1243.83 45C1291.19 45 1323.82 52.3751 1329.08 55.5359C1331.19 57.643 1331.19 60.8039 1331.19 99.7867V113.483C1331.19 153.52 1331.19 163.002 1328.03 163.002C1324.87 163.002 1310.14 153.52 1284.88 153.52C1251.2 153.52 1230.15 170.377 1230.15 229.378V294.701C1230.15 313.666 1237.52 316.826 1284.88 316.826H1332.24C1341.71 316.826 1341.71 321.041 1341.71 364.238V371.613C1341.71 414.81 1340.66 420.078 1333.29 420.078H1284.88C1237.52 420.078 1230.15 422.186 1230.15 442.204V744.584C1230.15 838.354 1226.99 842.568 1218.57 842.568H1072.28C1063.86 842.568 1061.75 838.354 1061.75 744.584V442.204Z" fill="#004012"/>
<path fill-rule="evenodd" clip-rule="evenodd" d="M551.393 57.4319C564.998 57.4319 575.901 68.4935 577.202 82.0348C588.803 202.821 684.934 298.945 805.729 310.545C819.271 311.846 830.333 322.749 830.333 336.352V563.792C830.333 577.395 819.271 588.298 805.729 589.599C684.934 601.199 588.803 697.323 577.202 818.109C575.901 831.651 564.998 842.712 551.393 842.712H323.94C310.336 842.712 299.432 831.651 298.132 818.109C286.531 697.323 190.399 601.199 69.6046 589.599C56.0623 588.298 45 577.395 45 563.792V336.352C45 322.749 56.0624 311.846 69.6046 310.545C190.399 298.945 286.531 202.821 298.132 82.0348C299.432 68.4935 310.336 57.4319 323.94 57.4319H551.393ZM202.68 449.407C202.68 580.065 308.487 685.983 439.007 685.983C569.527 685.983 675.334 580.065 675.334 449.407C675.334 318.75 569.527 212.83 439.007 212.83C308.487 212.83 202.68 318.75 202.68 449.407Z" fill="#004012"/>
</svg>
